# xmcd
#
# Track frame offsets: 
#        150
#        12303
#        28425
#        38949
#        56816
#        76109
#        99460
#        115922
#
# Disc length: 1802 seconds
#
# Revision: 0
# Processed by: cddbd v1.5.2PL0 Copyright (c) Steve Scherf et al.
# Submitted via: ExactAudioCopyFreeDBPlugin 1.0
#
DISCID=63070808
DTITLE=the fin - Glowing Red On The Shore EP
DYEAR=2014
DGENRE=Alternative
TTITLE0=Across The North Pole
TTITLE1=Circle On The Snows
TTITLE2=Misty Forest
TTITLE3=Floating In The Air
TTITLE4=Faded Light
TTITLE5=Glowing Red On The Shore
TTITLE6=You Can See It In The Blue
TTITLE7=Faded Light (Acoustic Version) 
EXTD=
EXTT0=
EXTT1=
EXTT2=
EXTT3=
EXTT4=
EXTT5=
EXTT6=
EXTT7=
PLAYORDER=
